<?xml version="1.0" standalone="no"?>
<!DOCTYPE svg PUBLIC "-//W3C//DTD SVG 20010904//EN"
 "http://www.w3.org/TR/2001/REC-SVG-20010904/DTD/svg10.dtd">
<svg version="1.0" xmlns="http://www.w3.org/2000/svg"
 width="1044.000000pt" height="1280.000000pt" viewBox="0 0 1044.000000 1280.000000"
 preserveAspectRatio="xMidYMid meet">
<metadata>
Created by potrace 1.15, written by Peter Selinger 2001-2017
</metadata>
<g transform="translate(0.000000,1280.000000) scale(0.100000,-0.100000)"
fill="#000000" stroke="none">
<path d="M7803 12790 c-170 -31 -315 -135 -388 -280 -60 -119 -90 -302 -79
-481 l7 -107 -34 -41 c-28 -36 -34 -52 -37 -106 -4 -55 0 -73 22 -119 34 -69
99 -130 132 -123 32 6 56 -25 86 -111 19 -56 23 -87 23 -192 0 -122 -1 -127
-33 -192 -61 -125 -160 -187 -592 -368 -164 -69 -252 -121 -326 -192 -67 -64
-114 -146 -139 -242 -36 -142 -38 -448 -4 -649 10 -62 10 -89 -4 -173 -21
-129 -63 -470 -81 -654 -12 -130 -17 -153 -49 -220 -20 -41 -47 -114 -61 -161
-46 -161 -86 -458 -86 -640 0 -69 -6 -103 -30 -175 -17 -49 -49 -152 -71 -229
-23 -80 -49 -149 -61 -162 -11 -11 -61 -36 -110 -54 -162 -58 -223 -111 -378
-329 -78 -108 -82 -129 -30 -150 44 -18 81 1 177 93 73 70 82 76 85 55 10 -69
-32 -263 -118 -546 -47 -153 -55 -188 -45 -208 8 -18 18 -24 44 -24 47 0 60
19 97 135 38 117 90 234 113 254 13 10 12 -1 -8 -60 -42 -124 -86 -315 -83
-360 4 -54 43 -89 82 -71 21 9 29 32 70 194 47 184 50 179 21 -32 -12 -92 -12
-108 1 -127 16 -25 51 -30 77 -10 12 8 30 70 58 197 22 101 41 186 43 188 2 2
7 -50 11 -115 3 -65 8 -124 10 -130 6 -18 50 -16 68 1 9 9 19 57 26 128 24
219 41 308 78 387 76 168 96 238 99 354 3 90 7 114 25 138 67 95 311 739 375
992 24 92 26 123 28 317 2 213 3 216 33 295 30 79 61 230 84 417 20 156 26
130 49 -215 16 -247 14 -427 -9 -567 -11 -69 -32 -222 -46 -340 -28 -230 -54
-388 -110 -680 -53 -273 -74 -595 -82 -1240 -7 -550 9 -841 64 -1130 13 -71
14 -132 9 -375 -8 -330 -15 -405 -56 -560 -16 -60 -38 -144 -49 -186 -64 -242
-90 -521 -72 -771 14 -198 35 -331 95 -614 128 -601 142 -701 127 -917 -9
-123 -9 -182 -1 -228 10 -55 9 -71 -14 -158 -50 -192 -87 -418 -101 -626 -8
-112 1 -141 55 -163 29 -12 41 -25 46 -45 7 -32 50 -87 68 -87 7 0 21 -9 31
-20 10 -11 26 -20 36 -20 9 0 36 -16 59 -35 42 -35 77 -44 96 -25 7 7 21 5 43
-6 63 -31 140 7 182 89 12 23 24 74 29 121 5 45 16 104 26 131 30 90 24 273
-19 530 -20 121 -43 288 -52 370 -20 187 -27 233 -72 420 -55 232 -52 269 62
770 108 474 107 471 106 648 -1 87 -8 222 -16 300 -21 197 -20 255 6 292 38
56 116 219 147 307 54 151 62 221 62 518 0 239 3 284 25 414 29 175 43 230
101 408 64 198 79 295 120 796 5 66 8 74 31 83 38 14 71 11 82 -9 5 -9 14 -89
21 -177 24 -335 49 -479 129 -728 97 -301 102 -334 111 -762 7 -308 10 -360
29 -433 26 -103 78 -230 136 -332 68 -121 71 -138 51 -336 -9 -94 -17 -244
-17 -335 -1 -180 -1 -178 101 -634 117 -526 118 -538 66 -770 -39 -172 -51
-248 -66 -395 -6 -58 -29 -222 -51 -365 -54 -343 -59 -443 -29 -555 12 -47 26
-116 30 -155 8 -80 35 -141 80 -179 41 -34 73 -41 119 -28 20 6 52 9 72 6 28
-5 41 -1 65 18 16 13 59 39 96 57 77 38 91 52 107 103 9 26 20 39 41 46 54 19
65 52 64 187 -1 102 -9 158 -54 380 l-53 260 -4 235 c-9 451 -10 449 122 1040
93 419 100 466 100 730 0 137 -5 260 -13 315 -23 154 -80 426 -112 535 -27 91
-33 135 -45 325 -29 458 -29 456 -11 541 20 101 41 284 58 499 17 234 17 1134
0 1270 -7 55 -17 179 -22 275 -9 183 -22 265 -89 595 -25 121 -47 267 -57 370
-8 94 -28 262 -44 375 -16 113 -32 248 -35 300 -7 99 7 361 29 535 14 110 17
105 36 -45 7 -52 32 -171 57 -265 43 -164 44 -177 53 -380 12 -300 26 -357
204 -835 104 -280 166 -424 206 -480 16 -23 20 -44 20 -110 0 -103 16 -166 90
-349 62 -153 60 -143 90 -440 11 -101 20 -121 54 -121 35 0 46 20 47 84 1 34
4 88 8 121 l6 60 43 -190 c44 -200 52 -215 103 -215 48 0 52 16 34 152 -9 67
-21 140 -26 162 -6 21 -8 40 -5 43 7 8 9 2 55 -186 22 -90 46 -170 54 -178 21
-22 65 -6 83 30 23 43 12 118 -42 295 -24 81 -43 154 -41 162 4 21 52 -82 102
-224 24 -66 46 -128 50 -137 17 -43 86 -40 106 4 9 20 3 49 -35 166 -85 258
-152 591 -120 591 5 0 41 -32 79 -71 71 -72 135 -112 164 -102 25 9 51 35 51
51 0 22 -216 307 -262 346 -21 19 -74 46 -116 61 -172 62 -207 98 -242 245 -7
30 -32 116 -55 190 -39 125 -43 146 -49 282 -13 307 -83 653 -158 775 -15 25
-24 76 -39 220 -25 244 -44 405 -70 578 -20 137 -20 183 0 275 6 25 10 128 11
230 0 234 -17 358 -64 456 -74 156 -185 236 -516 369 -177 71 -315 142 -402
208 -112 84 -140 147 -139 314 0 101 16 175 57 255 22 42 29 49 65 54 81 13
144 113 144 230 0 66 -3 75 -32 112 l-33 41 0 123 c0 422 -119 641 -390 723
-66 19 -272 28 -347 15z m307 -32 c91 -17 175 -61 238 -125 113 -114 157 -257
169 -548 6 -166 7 -170 35 -210 16 -23 32 -59 35 -81 11 -83 -71 -224 -130
-224 -39 0 -73 -35 -100 -104 -70 -174 -57 -394 29 -494 72 -84 217 -168 482
-278 208 -86 284 -124 363 -183 164 -121 220 -306 205 -681 -3 -91 -12 -191
-20 -224 -13 -50 -13 -71 -1 -152 26 -167 63 -474 81 -654 16 -164 19 -180 54
-255 73 -154 123 -413 141 -715 10 -168 14 -194 44 -285 19 -55 44 -138 55
-185 44 -173 82 -221 218 -270 145 -52 161 -65 287 -234 63 -84 115 -160 115
-170 0 -9 -7 -19 -15 -22 -32 -13 -70 10 -154 91 -49 47 -95 85 -103 85 -9 0
-19 -12 -22 -26 -16 -62 49 -369 127 -603 25 -74 43 -140 40 -147 -7 -19 -41
-28 -57 -15 -7 6 -32 67 -56 136 -72 206 -120 289 -151 258 -13 -13 -3 -61 51
-228 36 -112 50 -236 30 -260 -7 -8 -20 -15 -30 -15 -15 0 -25 31 -60 173 -24
94 -50 190 -60 212 -9 22 -20 48 -23 58 -14 40 -22 5 -16 -70 6 -70 31 -254
43 -325 4 -21 1 -28 -15 -33 -13 -4 -27 -1 -36 8 -8 8 -32 93 -53 189 -21 95
-45 191 -54 212 -9 21 -16 47 -16 57 0 11 -4 19 -8 19 -9 0 -22 -163 -22 -266
0 -61 -7 -84 -26 -84 -18 0 -21 14 -44 228 -19 179 -21 185 -75 316 -75 184
-96 264 -94 357 2 72 0 79 -39 142 -52 87 -122 265 -297 753 -64 178 -75 242
-85 484 -8 213 -9 217 -58 410 -66 256 -86 420 -79 640 6 174 12 210 66 342
35 89 50 158 32 158 -6 0 -13 -12 -16 -27 -4 -16 -24 -77 -46 -138 -50 -139
-59 -191 -60 -334 0 -64 -4 -120 -9 -126 -22 -26 -53 -391 -54 -620 -1 -211 2
-248 31 -440 18 -115 37 -273 43 -350 7 -88 31 -242 65 -415 73 -368 74 -377
86 -590 5 -102 14 -225 19 -275 38 -371 11 -1312 -46 -1640 -29 -167 -29 -189
-8 -530 18 -275 26 -352 42 -401 59 -175 127 -563 138 -784 12 -230 -12 -407
-119 -885 -114 -507 -117 -534 -106 -1015 5 -206 7 -225 52 -445 85 -422 85
-528 1 -555 -24 -8 -36 -19 -40 -38 -12 -48 -35 -84 -49 -78 -8 3 -28 -8 -44
-24 -16 -17 -38 -30 -49 -30 -10 0 -27 -9 -38 -21 -29 -33 -51 -41 -74 -29
-15 8 -32 7 -69 -7 l-49 -17 -40 26 c-52 35 -83 100 -93 197 -4 42 -15 99 -24
126 -29 86 -23 234 23 530 23 143 48 328 57 410 9 83 34 231 55 331 21 99 42
208 45 241 8 69 -6 151 -96 558 -106 477 -109 493 -109 649 0 77 7 204 15 281
8 77 15 172 15 212 0 69 -2 76 -66 198 -142 272 -154 330 -164 785 -9 408 -14
438 -103 716 -83 257 -108 386 -127 664 -5 80 -13 167 -16 193 l-6 48 43 -22
c36 -19 64 -24 157 -27 68 -3 112 0 112 5 0 6 -46 12 -102 15 -103 6 -164 22
-200 55 -39 35 -66 184 -75 406 -5 153 -23 188 -23 45 0 -120 -26 -333 -49
-400 -16 -45 -25 -56 -62 -75 -49 -24 -145 -43 -226 -43 -29 0 -53 -4 -53 -10
0 -25 224 -4 284 27 l29 15 -7 -118 c-19 -335 -49 -521 -115 -727 -50 -155
-76 -263 -107 -442 -14 -80 -17 -152 -15 -353 1 -184 -3 -277 -13 -345 -25
-151 -91 -325 -178 -471 -50 -83 -51 -96 -24 -374 23 -242 18 -408 -18 -572
-14 -63 -52 -234 -85 -380 -104 -458 -107 -500 -52 -725 38 -153 56 -262 76
-450 9 -82 30 -231 47 -330 38 -224 48 -431 23 -515 -9 -30 -20 -93 -25 -139
-6 -48 -20 -104 -31 -129 -34 -70 -101 -99 -164 -70 -20 9 -31 8 -50 -2 -22
-12 -28 -10 -62 16 -20 16 -55 38 -78 49 -27 14 -39 26 -37 37 2 11 -3 18 -13
18 -8 0 -15 -6 -15 -12 -1 -22 -50 42 -50 65 0 31 -11 44 -42 52 -51 13 -63
39 -60 123 5 160 43 410 96 632 20 88 22 117 21 400 -2 345 3 308 -124 910
-89 424 -96 479 -96 790 0 304 11 389 90 682 57 214 75 313 75 407 0 42 5 171
11 286 12 207 12 212 -14 375 -36 220 -45 308 -57 545 -17 341 -11 725 20
1285 14 255 24 339 65 550 51 263 73 398 111 695 18 148 41 315 50 370 14 88
15 130 4 350 -6 138 -18 304 -25 370 -8 66 -19 167 -25 225 -25 243 -33 289
-61 370 -17 47 -38 111 -47 143 -9 31 -20 57 -24 57 -17 0 -7 -54 25 -138 78
-203 94 -384 58 -647 -34 -244 -60 -373 -88 -438 -25 -59 -26 -73 -33 -302 -7
-212 -10 -251 -33 -335 -63 -233 -301 -858 -361 -946 -34 -50 -35 -54 -29
-121 7 -86 -17 -189 -77 -323 -57 -128 -76 -205 -98 -400 -16 -152 -19 -165
-38 -168 -20 -3 -21 3 -29 130 -4 73 -7 150 -7 171 0 45 -18 45 -30 1 -5 -16
-29 -119 -53 -229 -25 -109 -51 -206 -59 -213 -22 -22 -46 -7 -46 29 0 17 9
93 19 168 25 175 30 240 19 247 -4 3 -11 -3 -14 -13 -4 -10 -15 -36 -24 -58
-10 -22 -35 -110 -55 -195 -20 -85 -40 -165 -45 -177 -12 -28 -31 -29 -55 -3
-17 19 -17 24 -2 103 9 45 30 129 47 187 53 176 54 180 42 192 -32 32 -108
-96 -163 -274 -32 -102 -50 -131 -78 -126 -28 5 -24 44 23 195 90 295 137 516
123 575 -13 49 -33 41 -121 -47 -46 -46 -95 -87 -109 -90 -35 -9 -61 -3 -65
16 -3 18 156 235 219 298 43 42 146 98 253 136 64 23 91 54 111 124 8 31 40
133 69 226 53 168 53 172 65 360 18 316 65 549 140 710 30 64 40 100 45 161
13 149 48 449 75 635 25 176 26 190 12 265 -21 118 -20 516 1 611 32 138 98
239 207 312 75 51 147 86 326 161 425 175 535 268 567 473 18 120 -11 276 -72
375 -17 27 -25 32 -59 32 -34 0 -44 6 -70 39 -86 108 -92 208 -19 288 18 19
20 38 22 215 2 214 12 271 69 387 37 75 121 171 183 207 129 76 307 98 494 62z
m-160 -6286 c0 -22 7 -61 15 -88 8 -27 15 -52 15 -55 0 -4 -18 -9 -41 -11 -45
-4 -43 -11 -20 77 6 22 11 57 11 78 0 20 5 37 10 37 6 0 10 -17 10 -38z"/>
<path d="M8502 10614 c-12 -8 -22 -21 -22 -28 0 -8 -16 -67 -37 -131 l-36
-117 17 -97 c19 -113 20 -214 5 -446 -13 -184 -7 -237 32 -276 58 -58 227 33
275 146 8 19 27 82 43 142 44 161 61 193 154 292 122 128 144 205 88 310 l-21
41 53 0 c58 0 77 12 77 46 0 30 -40 60 -101 74 -68 17 -231 8 -286 -15 l-43
-17 -40 34 c-34 30 -96 58 -126 58 -5 0 -20 -7 -32 -16z m121 -44 c26 -16 47
-32 47 -34 0 -3 -34 -28 -75 -56 -41 -28 -75 -55 -75 -61 0 -16 20 -6 102 49
97 64 176 87 298 86 100 -1 166 -18 184 -48 8 -12 7 -19 -3 -25 -25 -16 -115
-4 -152 19 -47 29 -80 22 -267 -56 -155 -66 -203 -97 -217 -141 -10 -36 18
-28 35 10 13 28 34 40 180 104 190 83 231 90 275 46 66 -67 87 -163 50 -237
-10 -21 -56 -79 -101 -127 -90 -96 -102 -121 -149 -295 -45 -163 -84 -222
-175 -263 -60 -27 -84 -26 -109 5 -18 23 -21 41 -21 131 0 58 5 169 11 247 8
110 8 163 -2 232 -24 172 -23 208 5 287 14 40 30 91 36 115 10 39 13 42 43 42
19 0 53 -12 80 -30z"/>
<path d="M7263 10595 c-28 -14 -58 -34 -67 -44 -16 -18 -18 -18 -74 1 -76 26
-206 28 -287 4 -74 -22 -85 -31 -85 -67 0 -36 30 -53 76 -44 19 3 38 4 43 1 4
-3 -3 -36 -15 -73 -13 -37 -24 -87 -24 -110 0 -38 7 -50 59 -110 32 -38 75
-84 96 -103 51 -48 78 -105 113 -242 47 -178 89 -245 184 -292 62 -31 118 -34
142 -7 27 30 35 127 26 289 -14 223 -12 371 5 428 22 73 19 109 -20 224 -19
57 -35 112 -35 121 0 26 -28 49 -59 49 -15 0 -50 -11 -78 -25z m98 -5 c10 -6
19 -21 19 -33 0 -12 16 -67 35 -122 39 -112 41 -135 20 -194 -18 -53 -22 -176
-12 -441 8 -217 4 -265 -25 -283 -23 -15 -101 10 -153 49 -54 42 -85 103 -125
254 -42 156 -57 183 -157 286 -119 124 -118 121 -103 197 20 105 67 172 127
183 28 5 50 -2 121 -38 48 -25 118 -56 157 -68 70 -23 125 -64 125 -94 0 -9 5
-16 10 -16 20 0 9 40 -20 74 -24 26 -51 41 -113 62 -45 14 -114 44 -153 65
-84 46 -133 50 -182 17 -28 -19 -44 -22 -98 -20 -54 3 -64 7 -64 22 0 31 100
60 206 60 111 0 225 -42 325 -121 20 -16 42 -29 48 -29 26 0 6 21 -61 66 -40
27 -75 50 -78 52 -3 2 11 17 30 33 29 25 47 33 98 48 2 1 12 -4 23 -9z"/>
<path d="M8054 7227 c-33 -24 -72 -62 -88 -86 -26 -37 -31 -40 -39 -24 -25 47
-131 133 -164 133 -25 0 -12 -15 43 -49 64 -39 114 -101 114 -143 0 -39 21
-32 33 11 8 33 93 126 151 167 19 12 26 23 19 27 -6 4 -37 -13 -69 -36z"/>
<path d="M7277 4443 c-3 -4 -1 -60 4 -123 5 -63 8 -161 7 -217 -1 -60 2 -102
8 -100 12 3 9 426 -4 439 -5 5 -12 6 -15 1z"/>
<path d="M8586 4433 c-21 -65 -26 -433 -6 -433 4 0 10 87 14 193 3 105 9 207
12 225 7 34 -10 46 -20 15z"/>
<path d="M8712 3745 c-54 -56 -83 -98 -118 -170 -25 -53 -44 -99 -40 -102 10
-10 34 16 41 45 13 52 78 154 141 222 35 37 64 70 64 74 0 18 -24 -1 -88 -69z"/>
<path d="M7080 3800 c0 -5 21 -29 46 -52 57 -52 116 -139 155 -225 16 -35 34
-61 39 -58 25 15 -71 186 -154 273 -66 69 -86 84 -86 62z"/>
<path d="M8804 1757 c-8 -21 0 -237 9 -240 4 -1 9 55 11 126 2 74 0 127 -5
127 -5 0 -12 -6 -15 -13z"/>
<path d="M7053 1630 c0 -113 7 -148 21 -97 3 12 6 56 6 97 0 41 -3 85 -6 98
-14 50 -21 15 -21 -98z"/>
<path d="M7103 1643 c7 -108 14 -143 29 -143 7 0 8 15 4 38 -4 20 -9 74 -13
120 -3 45 -10 82 -16 82 -6 0 -8 -35 -4 -97z"/>
<path d="M8757 1657 c-3 -45 -10 -94 -16 -109 -14 -37 6 -48 20 -11 15 37 25
203 12 203 -6 0 -13 -37 -16 -83z"/>
<path d="M8690 1448 c-39 -27 -64 -59 -85 -110 -22 -54 1 -59 25 -5 28 63 55
94 96 107 72 24 186 -62 216 -162 12 -42 28 -50 28 -15 0 32 -53 119 -92 152
-69 58 -134 69 -188 33z"/>
<path d="M7055 1439 c-74 -39 -145 -128 -145 -182 0 -32 19 -17 32 25 15 52
74 113 135 140 73 32 116 11 162 -79 23 -46 41 -63 41 -38 0 28 -38 91 -75
123 -43 39 -91 42 -150 11z"/>
<path d="M2316 12695 c-192 -53 -328 -201 -388 -422 -17 -62 -22 -114 -24
-256 l-4 -178 -32 -40 c-26 -32 -33 -51 -36 -98 -4 -52 0 -68 32 -135 38 -78
58 -97 123 -110 37 -8 46 -18 62 -66 29 -92 38 -195 31 -346 -6 -131 -10 -158
-32 -205 -61 -131 -175 -196 -493 -279 -190 -49 -282 -81 -343 -116 -176 -104
-228 -248 -219 -609 3 -145 8 -196 26 -260 26 -94 28 -139 7 -203 -31 -94
-116 -674 -116 -791 0 -19 -17 -69 -39 -115 -71 -146 -129 -425 -141 -676 -4
-96 -15 -206 -24 -245 -15 -65 -105 -365 -128 -427 -13 -34 -53 -60 -133 -86
-124 -40 -208 -99 -279 -196 -12 -17 -55 -74 -94 -128 -40 -53 -72 -103 -72
-111 0 -21 38 -47 68 -47 37 0 62 17 149 103 68 67 83 78 89 63 17 -44 -45
-324 -130 -591 -39 -121 -43 -143 -33 -165 14 -30 66 -39 89 -16 8 8 37 74 63
148 51 142 87 222 107 234 8 5 9 2 4 -12 -23 -57 -95 -327 -100 -374 -8 -66 7
-100 48 -115 43 -15 59 14 102 189 21 85 40 154 41 152 3 -3 -20 -186 -32
-263 -10 -56 52 -86 94 -44 19 19 25 41 72 276 26 128 36 118 38 -36 1 -100 8
-119 47 -119 36 0 45 24 60 157 28 265 31 277 88 411 76 177 90 231 91 337 0
78 3 94 23 122 40 56 97 190 187 438 92 254 112 305 168 425 71 153 87 231 87
420 0 87 6 154 19 215 11 50 29 158 41 240 11 83 24 157 27 165 4 8 12 -41 18
-110 41 -421 40 -363 6 -600 -16 -118 -35 -264 -41 -325 -6 -60 -31 -222 -56
-360 -108 -609 -144 -980 -144 -1515 0 -328 10 -538 51 -1045 47 -582 39 -731
-65 -1185 -79 -348 -90 -428 -90 -670 0 -279 3 -300 129 -883 107 -493 119
-602 97 -826 -9 -92 -9 -140 -1 -187 10 -56 8 -75 -20 -195 -69 -305 -112
-645 -90 -709 7 -20 23 -35 50 -47 31 -13 41 -25 49 -54 12 -45 48 -82 108
-110 26 -12 63 -34 82 -48 26 -19 49 -26 85 -28 28 -1 70 -4 95 -8 93 -13 153
62 175 222 8 54 21 123 30 153 22 73 14 301 -15 455 -49 263 -71 409 -81 540
-7 93 -21 177 -40 250 -61 233 -62 340 -4 585 135 573 157 683 162 810 3 76
-1 196 -11 305 -9 99 -16 215 -16 259 0 76 2 83 41 148 60 100 117 238 152
368 l30 115 2 315 c2 358 -3 322 108 745 37 138 73 283 82 322 24 118 45 298
45 390 0 48 5 115 11 150 11 64 11 64 43 61 30 -3 31 -5 38 -63 3 -33 11 -139
17 -235 16 -252 22 -286 134 -671 93 -319 105 -421 98 -814 -4 -240 32 -390
154 -635 l67 -135 -8 -185 c-5 -102 -8 -279 -9 -395 0 -209 1 -210 37 -355 21
-80 58 -242 83 -360 26 -118 53 -244 60 -280 23 -104 18 -184 -25 -407 -23
-115 -52 -300 -66 -413 -13 -113 -35 -268 -49 -345 -53 -309 -57 -440 -16
-580 12 -38 21 -93 21 -121 0 -61 38 -144 81 -175 41 -29 90 -35 130 -15 22
11 36 13 43 6 19 -19 54 -10 95 24 23 19 55 37 72 41 42 9 117 83 125 123 5
24 13 32 35 37 91 20 91 196 2 600 -43 190 -47 223 -48 350 -1 77 -5 203 -9
280 -12 205 12 369 115 810 69 293 96 447 110 627 21 271 -11 561 -98 898 -59
228 -58 224 -78 585 -17 309 -17 310 4 425 26 145 47 350 62 600 15 251 6 942
-15 1235 -25 351 -32 406 -85 675 -57 291 -82 455 -111 727 -11 106 -25 214
-31 240 -6 27 -11 82 -10 123 1 81 38 480 45 487 2 2 9 -36 16 -84 7 -48 24
-149 37 -223 15 -79 29 -200 33 -290 11 -209 34 -316 103 -465 31 -66 90 -215
130 -330 110 -308 143 -389 218 -515 16 -28 19 -46 15 -94 -6 -84 9 -162 50
-258 78 -180 103 -277 129 -507 9 -74 21 -141 27 -148 13 -17 52 -17 66 0 5 6
13 66 17 132 8 118 8 119 21 77 7 -23 26 -108 43 -188 16 -80 35 -152 42 -160
15 -19 64 -18 83 2 20 19 20 5 -4 175 -12 78 -19 143 -18 145 2 2 22 -70 43
-159 42 -171 59 -203 98 -191 44 13 52 31 51 107 -1 53 -11 104 -39 192 -21
66 -43 139 -51 163 -7 23 -9 42 -5 42 12 0 73 -138 115 -260 20 -57 44 -112
53 -122 19 -21 62 -23 88 -4 22 16 21 22 -49 251 -71 231 -127 499 -111 526 5
7 33 -14 79 -58 97 -95 123 -113 162 -113 25 0 38 7 50 25 15 23 15 27 -5 61
-36 61 -173 235 -228 290 -32 32 -69 58 -100 69 -131 49 -200 79 -215 97 -10
11 -27 52 -38 91 -11 40 -43 142 -69 227 -47 150 -49 160 -55 310 -10 275 -65
563 -141 740 -33 77 -38 103 -56 265 -32 307 -77 569 -114 676 -14 39 -14 49
10 143 32 130 44 289 33 457 -13 205 -48 300 -144 388 -78 72 -143 99 -398
166 -214 57 -344 109 -434 175 -85 61 -119 197 -109 438 8 202 40 292 107 292
37 0 102 72 124 137 30 86 22 128 -41 237 -8 13 -13 63 -13 136 0 432 -118
638 -410 719 -88 25 -255 27 -334 6z m295 -20 c209 -44 341 -172 393 -380 18
-71 36 -255 36 -374 0 -78 2 -88 33 -135 26 -42 32 -60 31 -106 -1 -92 -69
-200 -126 -200 -59 0 -100 -78 -114 -217 l-7 -63 -89 -85 c-48 -46 -110 -97
-136 -112 -42 -25 -56 -28 -142 -28 -118 0 -174 23 -272 114 -94 86 -107 108
-123 203 -8 45 -20 97 -26 115 -13 39 -53 73 -86 73 -51 0 -133 126 -133 206
0 33 26 93 53 122 20 22 22 33 23 190 0 134 5 184 22 254 80 327 338 491 663
423z m-326 -1672 c52 -35 124 -53 209 -53 109 0 160 25 269 129 l84 81 7 -95
c9 -129 31 -240 56 -280 49 -80 145 -137 330 -199 128 -43 133 -46 104 -57
-46 -18 -204 -5 -344 29 -228 55 -353 64 -433 33 -49 -19 -20 -28 45 -15 67
14 173 7 293 -20 33 -8 101 -23 150 -34 50 -11 117 -24 151 -27 73 -9 174 9
174 31 0 19 -1 19 154 -26 166 -48 224 -77 286 -139 91 -91 118 -179 127 -411
6 -167 -3 -267 -38 -411 l-22 -86 26 -99 c43 -163 88 -456 112 -724 5 -53 20
-107 51 -186 73 -185 114 -391 134 -658 5 -73 7 -149 4 -167 -4 -23 3 -59 20
-109 15 -41 49 -151 77 -245 40 -137 55 -175 78 -196 15 -14 76 -43 136 -65
88 -32 119 -48 162 -87 56 -52 243 -291 243 -312 0 -21 -28 -37 -51 -30 -12 4
-62 45 -111 91 -94 90 -123 102 -134 57 -15 -59 49 -357 134 -623 41 -128 41
-150 2 -150 -26 0 -34 14 -71 124 -50 146 -119 281 -144 281 -29 0 -24 -45 24
-196 53 -170 66 -241 49 -277 -7 -15 -23 -28 -34 -30 -20 -3 -25 12 -68 185
-50 201 -72 263 -93 263 -16 0 -17 -16 -2 -25 5 -4 8 -19 4 -33 -3 -15 4 -90
15 -167 24 -172 25 -204 4 -212 -30 -11 -46 25 -75 167 -34 170 -56 250 -69
250 -6 0 -10 14 -10 30 0 17 -4 30 -9 30 -5 0 -12 -66 -15 -147 -8 -171 -11
-193 -31 -193 -19 0 -22 14 -40 169 -21 180 -47 294 -91 399 -76 184 -84 210
-84 313 0 88 -2 101 -30 150 -70 124 -98 194 -217 529 -36 102 -90 237 -120
302 -66 144 -92 262 -103 478 -4 85 -10 162 -13 170 -13 30 -80 469 -93 610
-8 80 -15 206 -17 280 l-2 135 47 85 c45 83 63 144 43 146 -5 0 -15 -18 -21
-40 -5 -23 -23 -61 -38 -85 -61 -96 -67 -154 -41 -465 8 -98 13 -181 11 -185
-2 -3 -16 -141 -31 -306 -27 -291 -27 -302 -11 -380 9 -44 23 -147 31 -230 29
-290 49 -425 116 -764 59 -304 71 -423 99 -996 24 -490 -1 -1120 -56 -1440
-28 -162 -29 -196 -11 -515 16 -299 19 -322 52 -450 102 -392 120 -518 120
-845 -1 -300 -6 -338 -104 -764 -118 -506 -123 -551 -117 -930 l6 -291 40
-185 c22 -102 47 -227 55 -277 17 -95 23 -277 11 -315 -4 -12 -23 -28 -45 -37
-30 -11 -41 -22 -46 -45 -10 -46 -43 -81 -103 -108 -30 -13 -71 -37 -91 -54
-34 -27 -41 -29 -65 -18 -20 9 -32 9 -51 1 -100 -46 -195 48 -195 192 0 23
-10 73 -21 111 -33 109 -30 273 9 495 17 96 39 238 47 315 22 193 49 363 86
540 40 191 41 288 5 440 -14 61 -39 178 -56 260 -17 83 -49 222 -71 310 -52
207 -59 342 -34 634 23 271 19 301 -56 445 -71 137 -123 287 -145 421 -13 82
-15 140 -9 320 9 290 -11 421 -120 785 -86 287 -98 356 -125 750 -9 134 -9
146 7 155 38 22 90 84 121 147 17 37 32 71 32 77 0 25 -18 8 -40 -39 -60 -128
-106 -170 -186 -170 -72 0 -107 27 -165 130 -45 78 -69 107 -69 82 0 -25 97
-176 131 -206 l40 -33 -11 -184 c-17 -291 -36 -391 -155 -834 -80 -300 -102
-473 -85 -672 23 -259 -35 -517 -170 -753 -27 -47 -51 -101 -55 -121 -4 -21 1
-122 11 -225 9 -104 17 -259 17 -344 l0 -155 -76 -330 c-42 -181 -87 -379
-101 -440 -42 -182 -35 -334 28 -550 15 -52 26 -114 26 -150 0 -83 23 -261 59
-462 69 -380 75 -477 36 -627 -14 -53 -25 -113 -25 -134 0 -60 -18 -107 -58
-151 -40 -45 -44 -46 -162 -37 -41 3 -73 12 -90 25 -14 10 -53 32 -86 49 -70
35 -94 60 -103 104 -5 24 -17 38 -51 58 l-45 27 3 129 c3 144 26 301 79 539
20 88 35 174 33 190 -7 53 -4 288 4 366 13 113 -13 275 -130 814 -36 165 -72
345 -80 400 -35 232 -35 513 1 720 8 50 40 200 70 335 30 135 62 299 71 365
24 175 21 423 -10 785 -51 607 -65 1016 -47 1395 20 422 50 679 130 1125 27
151 57 343 66 425 9 83 28 227 41 320 28 197 29 264 10 435 -8 69 -17 165 -21
213 -4 49 -10 101 -14 115 -5 15 -2 101 5 192 7 91 13 213 14 272 0 107 0 107
-41 185 -23 43 -47 96 -54 118 -12 41 -32 49 -27 11 1 -12 25 -66 52 -121 58
-117 58 -113 35 -413 -13 -181 -32 -316 -90 -657 -14 -84 -26 -200 -29 -290
-5 -176 -23 -255 -89 -395 -40 -85 -83 -197 -219 -565 -53 -144 -100 -245
-134 -291 -26 -34 -28 -41 -25 -123 3 -99 -18 -177 -94 -351 -49 -112 -57
-149 -80 -374 -9 -82 -18 -153 -21 -157 -10 -17 -34 -9 -39 14 -4 18 -13 191
-15 290 -1 15 -5 27 -10 27 -14 0 -46 -113 -75 -262 -14 -73 -30 -148 -36
-166 -12 -36 -38 -55 -59 -42 -12 7 -10 41 13 217 30 227 31 233 20 233 -17
-1 -47 -90 -94 -273 -27 -106 -49 -193 -49 -194 0 -2 -11 -3 -24 -3 -59 0 -47
111 43 390 26 80 28 97 17 108 -36 36 -82 -41 -156 -255 -45 -130 -54 -145
-84 -141 -32 5 -31 36 8 155 20 59 51 166 71 236 75 278 85 407 29 407 -7 0
-50 -38 -96 -84 -47 -47 -97 -88 -112 -92 -26 -6 -56 8 -56 29 0 5 26 44 57
86 31 42 74 99 96 128 79 105 141 150 269 192 79 26 128 57 145 91 20 41 122
389 138 473 8 44 15 124 15 180 0 124 19 262 61 445 34 150 60 228 94 282 16
25 24 59 29 120 22 263 82 650 123 797 l17 62 -28 113 c-35 138 -45 313 -26
479 20 181 62 272 159 344 67 49 141 77 339 131 377 101 476 154 543 289 27
56 33 81 40 177 4 62 8 126 8 143 1 29 2 29 74 -41 39 -39 86 -80 102 -91z"/>
<path d="M2153 11943 c-18 -9 -33 -23 -33 -30 0 -16 -2 -17 45 7 49 25 98 25
152 0 49 -22 66 -11 25 16 -38 25 -146 29 -189 7z"/>
<path d="M2632 11940 c-63 -29 -43 -41 27 -16 61 21 68 21 164 -11 31 -10 18
14 -17 31 -46 22 -122 20 -174 -4z"/>
<path d="M2167 11813 c-29 -12 -37 -20 -35 -37 3 -24 45 -35 146 -35 92 -1 75
15 -24 22 -91 7 -108 12 -84 27 23 15 118 12 150 -5 19 -10 31 -11 35 -5 9 15
-73 50 -115 49 -19 0 -52 -7 -73 -16z"/>
<path d="M2651 11819 c-34 -14 -52 -30 -45 -41 3 -5 17 -2 31 8 36 23 185 12
161 -12 -3 -3 -47 -8 -97 -11 -50 -3 -88 -10 -85 -14 8 -13 143 -10 184 4 50
17 44 39 -15 59 -56 19 -98 21 -134 7z"/>
<path d="M2310 11512 c0 -5 9 -17 19 -26 16 -14 26 -16 48 -9 22 8 37 5 67
-10 37 -20 39 -20 72 -2 19 10 44 15 60 12 27 -5 74 10 74 23 0 11 -119 5
-132 -7 -16 -17 -43 -16 -79 2 -19 11 -41 14 -64 9 -23 -4 -35 -2 -35 5 0 6
-7 11 -15 11 -8 0 -15 -4 -15 -8z"/>
<path d="M2376 11366 c-84 -31 -85 -62 -3 -104 64 -33 147 -33 221 1 68 31 73
55 19 88 -47 29 -177 37 -237 15z m210 -27 c39 -20 40 -35 4 -54 -71 -36 -202
-26 -239 19 -37 44 157 72 235 35z"/>
<path d="M2370 10765 c0 -20 47 -53 85 -61 46 -8 90 3 125 33 41 34 28 48 -17
18 -48 -33 -108 -33 -157 0 -26 17 -36 20 -36 10z"/>
<path d="M2208 10609 c-31 -4 -114 -22 -185 -38 -181 -43 -256 -53 -353 -49
-51 2 -86 -1 -88 -7 -1 -6 40 -11 106 -13 111 -3 163 5 417 63 124 28 227 32
265 10 30 -17 50 -19 50 -4 0 29 -123 52 -212 38z"/>
<path d="M1802 9523 c-16 -6 -42 -56 -42 -82 0 -11 12 -29 27 -41 33 -26 75
-21 110 12 42 39 23 118 -28 118 -26 0 -24 -13 4 -25 53 -24 20 -95 -45 -95
-47 0 -56 54 -14 89 27 22 20 37 -12 24z"/>
<path d="M3062 9514 c-31 -22 -30 -73 4 -105 32 -30 99 -33 120 -4 24 33 11
109 -21 121 -23 9 -31 -4 -13 -19 21 -17 32 -66 17 -83 -19 -23 -75 -18 -93 8
-23 32 -20 57 9 70 14 6 25 15 25 20 0 13 -24 9 -48 -8z"/>
<path d="M1630 9450 c0 -27 88 -103 154 -134 97 -46 164 -61 276 -60 98 0 180
18 253 55 54 28 36 42 -21 17 -78 -35 -142 -48 -237 -48 -152 0 -283 47 -368
132 -50 50 -57 55 -57 38z"/>
<path d="M3276 9414 c-152 -139 -408 -175 -613 -84 -25 11 -45 15 -49 9 -9
-15 96 -58 183 -75 121 -24 258 -5 379 52 73 35 194 146 157 144 -5 -1 -30
-21 -57 -46z"/>
<path d="M2280 8714 c-35 -25 -138 -115 -229 -198 -211 -193 -273 -244 -338
-273 -42 -20 -56 -22 -73 -13 -26 14 -37 6 -20 -15 7 -8 24 -15 39 -15 67 1
158 67 421 309 91 83 193 171 227 194 34 23 63 45 63 50 0 18 -32 4 -90 -39z"/>
<path d="M2610 8743 c1 -5 24 -25 53 -45 50 -37 111 -90 343 -302 168 -153
267 -210 328 -186 40 15 31 28 -17 23 -74 -9 -132 30 -352 234 -248 229 -357
314 -355 276z"/>
<path d="M2440 7947 c0 -8 9 -22 20 -32 20 -18 21 -18 42 3 24 24 18 42 -8 21
-14 -11 -17 -10 -25 4 -12 20 -29 22 -29 4z"/>
<path d="M3352 7520 c-55 -40 -117 -116 -263 -325 -148 -212 -239 -314 -312
-349 -38 -18 -48 -26 -35 -31 18 -7 67 15 116 54 50 39 137 148 263 331 72
104 146 197 201 252 88 90 102 120 30 68z"/>
<path d="M1570 7531 c0 -5 13 -19 29 -30 46 -33 148 -161 267 -336 67 -99 140
-191 189 -241 80 -81 149 -124 166 -107 6 6 -7 17 -33 29 -72 32 -173 145
-313 348 -153 224 -305 391 -305 337z"/>
<path d="M698 6891 c-45 -82 -126 -130 -220 -131 -38 0 -48 -4 -48 -16 0 -14
8 -16 57 -10 106 12 192 67 234 148 38 73 17 81 -23 9z"/>
<path d="M4220 6922 c0 -14 56 -96 81 -119 55 -50 229 -97 229 -61 0 12 -16
17 -66 21 -87 7 -148 44 -189 114 -26 46 -55 69 -55 45z"/>
<path d="M1624 4411 c-58 -26 -92 -80 -118 -183 -5 -21 -3 -28 8 -28 8 0 17
15 21 37 4 20 15 54 25 74 50 97 140 118 225 53 54 -41 84 -41 40 1 -36 33
-101 65 -135 65 -14 0 -43 -9 -66 -19z"/>
<path d="M3200 4409 c-45 -20 -90 -56 -90 -71 0 -14 28 -9 34 7 9 24 85 55
134 55 75 0 132 -61 148 -159 4 -24 11 -40 18 -38 23 8 -7 114 -47 162 -54 66
-118 80 -197 44z"/>
<path d="M1920 3923 c-1 -30 -36 -99 -66 -126 -35 -33 -119 -52 -158 -37 -33
12 -46 13 -46 1 0 -18 61 -34 112 -28 72 9 124 46 154 110 25 54 31 97 14 97
-5 0 -10 -8 -10 -17z"/>
<path d="M3020 3908 c1 -59 93 -162 155 -174 43 -8 113 0 128 15 18 18 4 21
-41 9 -84 -21 -163 23 -201 112 -20 47 -41 66 -41 38z"/>
</g>
</svg>
